<svg width="536" height="501" viewBox="0 0 536 501" fill="none" xmlns="http://www.w3.org/2000/svg">
<rect x="488.3" y="122.12" width="26.832" height="65.138" transform="rotate(138.429 488.3 122.12)" fill="#8B5CF6"/>
<rect x="372.12" y="66" width="25.9056" height="62.056" transform="rotate(45.3193 372.12 66)" fill="#8B5CF6"/>
<ellipse cx="414" cy="48" rx="49" ry="48" fill="#8B5CF6"/>
<rect y="84" width="365" height="349" rx="91" fill="#8B5CF6"/>
<path fill-rule="evenodd" clip-rule="evenodd" d="M201.355 158.638C202.404 155.648 205.332 153.736 208.492 153.978L225.689 155.291C230.344 155.647 233.353 160.373 231.705 164.742L195.143 261.642L165.935 344.259C164.946 347.056 162.302 348.926 159.336 348.926L142.126 348.926C137.233 348.926 133.849 344.033 135.577 339.454L168.476 252.279L201.355 158.638Z" fill="white"/>
<path fill-rule="evenodd" clip-rule="evenodd" d="M251.274 175.789C248.611 173.118 244.31 173.037 241.549 175.606L230.387 185.989C227.456 188.715 227.404 193.339 230.273 196.131L284.315 248.716C287.15 251.475 287.137 256.035 284.286 258.778L233.903 307.245C231.033 310.006 231.041 314.601 233.92 317.351L245.333 328.257C248.09 330.891 252.449 330.834 255.136 328.129L324.092 258.704C326.806 255.97 326.802 251.557 324.083 248.829L251.274 175.789Z" fill="white"/>
<path fill-rule="evenodd" clip-rule="evenodd" d="M115.226 175.789C117.889 173.118 122.19 173.037 124.951 175.606L136.113 185.989C139.044 188.715 139.096 193.339 136.227 196.131L82.1854 248.716C79.3497 251.475 79.3627 256.035 82.2142 258.778L132.597 307.245C135.467 310.006 135.459 314.601 132.58 317.351L121.167 328.257C118.41 330.891 114.051 330.834 111.364 328.129L42.4084 258.704C39.6936 255.97 39.6976 251.557 42.4174 248.829L115.226 175.789Z" fill="white"/>
<circle cx="495" cy="161" r="41" fill="#8B5CF6"/>
<rect x="384.296" y="429.732" width="26.832" height="65.138" transform="rotate(138.429 384.296 429.732)" fill="#8B5CF6"/>
<circle cx="394" cy="460" r="41" fill="#8B5CF6"/>
</svg>
