<svg width="365" height="349" viewBox="0 0 365 349" fill="none" xmlns="http://www.w3.org/2000/svg">
<rect width="365" height="349" rx="91" fill="#8B5CF6"/>
<path fill-rule="evenodd" clip-rule="evenodd" d="M201.355 74.6385C202.404 71.6483 205.332 69.7365 208.492 69.9778L225.689 71.291C230.344 71.6465 233.353 76.3735 231.705 80.7419L195.143 177.642L165.935 260.259C164.946 263.056 162.302 264.926 159.336 264.926L142.126 264.926C137.233 264.926 133.849 260.033 135.577 255.454L168.476 168.279L201.355 74.6385Z" fill="white"/>
<path fill-rule="evenodd" clip-rule="evenodd" d="M251.274 91.7892C248.611 89.1179 244.31 89.0368 241.549 91.6058L230.387 101.989C227.456 104.715 227.404 109.34 230.273 112.131L284.315 164.716C287.15 167.475 287.137 172.035 284.286 174.778L233.903 223.245C231.033 226.006 231.041 230.601 233.92 233.351L245.333 244.257C248.09 246.891 252.449 246.834 255.136 244.129L324.092 174.704C326.806 171.97 326.802 167.557 324.083 164.829L251.274 91.7892Z" fill="white"/>
<path fill-rule="evenodd" clip-rule="evenodd" d="M115.226 91.7892C117.889 89.1179 122.19 89.0368 124.951 91.6058L136.113 101.989C139.044 104.715 139.096 109.34 136.227 112.131L82.1854 164.716C79.3497 167.475 79.3627 172.035 82.2142 174.778L132.597 223.245C135.467 226.006 135.459 230.601 132.58 233.351L121.167 244.257C118.41 246.891 114.051 246.834 111.364 244.129L42.4084 174.704C39.6936 171.97 39.6976 167.557 42.4174 164.829L115.226 91.7892Z" fill="white"/>
</svg>
